<?xml version="1.0" encoding="utf-8"?>
<!DOCTYPE svg PUBLIC "-//W3C//DTD SVG 1.1//EN" "http://www.w3.org/Graphics/SVG/1.1/DTD/svg11.dtd">
<svg version="1.1" id="Layer_1" xmlns="http://www.w3.org/2000/svg" xmlns:xlink="http://www.w3.org/1999/xlink" x="0px" y="0px"
   width="512px" height="512px" viewBox="0 0 512 512" enable-background="new 0 0 512 512" xml:space="preserve">
<path d="M256,0C114.609,0,0,114.609,0,256c0,141.392,114.609,256,256,256c141.392,0,256-114.608,256-256
  C512,114.609,397.392,0,256,0z M256,472c-119.297,0-216-96.702-216-216c0-119.297,96.703-216,216-216c119.298,0,216,96.703,216,216
  C472,375.298,375.298,472,256,472z" fill="#bbb"/>
<path d="M 256 0 C 114.6151 3.7895613e-14 0 114.6151 0 256 C 0 397.3849 114.6151 512 256 512 C 397.3849 512 512 397.3849 512 256 C 512 114.6151 397.3849 -4.2632564e-14 256 0 z M 211.9375 123.21875 L 228.875 123.21875 L 228.875 187.875 L 161.90625 187.875 L 161.90625 171.53125 L 211.9375 123.21875 z M 251.59375 123.21875 L 350.09375 123.21875 L 350.09375 388.78125 L 161.90625 388.78125 L 161.90625 209.8125 L 251.59375 209.8125 L 251.59375 123.21875 z " fill="#bbb"/>
</svg>
